<svg xmlns="http://www.w3.org/2000/svg" xmlns:xlink="http://www.w3.org/1999/xlink" width="30.336" height="16.382" viewBox="0 0 30.336 16.382">
  <defs>
    <linearGradient id="linear-gradient" x1="0.5" x2="0.5" y2="1" gradientUnits="objectBoundingBox">
      <stop offset="0" stop-color="#e2f7e5"/>
      <stop offset="1" stop-color="#52b788"/>
    </linearGradient>
  </defs>
  <path id="Path_1" data-name="Path 1" d="M4.763,16.2c-.537-.428-.133-.715.088-.985,1.487-1.815,3-3.607,5.429-4.231.674-.173.619-.429.2-.875C9.356,8.918,7.723,8.859,6.172,10a20.749,20.749,0,0,0-4.919,5.753c-.207.319-.37.92-.974.425C.061,16-.12,15.864.1,15.523c1.711-2.642,3.419-5.286,6.279-6.886a3.64,3.64,0,0,1,4.87.76c1.416,1.5,2.82,3.017,4.227,4.528a2.36,2.36,0,0,0,3.515.447c2.311-1.529,3.85-3.761,5.386-5.985,1.731-2.506,3.207-5.164,4.686-7.82.2-.368.331-.8.951-.419.472.292.331.536.163.771l-.827,1.436a62.872,62.872,0,0,1-6.566,10.005,17.724,17.724,0,0,1-3.336,3.015A3.04,3.04,0,0,1,17.365,16a2.844,2.844,0,0,1-2.439-1.089c-.582-.615-1.109-1.282-1.706-1.882a2.948,2.948,0,0,0-3.715-.59A11.369,11.369,0,0,0,5.7,15.89c-.166.212-.291.492-.537.492A.676.676,0,0,1,4.763,16.2Zm10.458-4.106C17.763,10.963,19.3,8.9,20.753,6.779c.988-1.45,1.877-2.967,2.789-4.467.194-.319.335-.6.764-.331.358.226.506.437.24.887A37.6,37.6,0,0,1,18.6,11.155a11.605,11.605,0,0,1-1.673,1.314,1.871,1.871,0,0,1-.837.41C15.833,12.879,15.639,12.634,15.221,12.093ZM12.73,9.366c2.176-.945,3.475-2.739,4.725-4.583.266-.391.54-.776.8-1.173.219-.337.477-.2.694-.042.193.143.488.258.235.632-1.361,2.008-2.658,4.072-4.7,5.489a1.832,1.832,0,0,1-.938.413c-.3,0-.579-.187-.81-.736Z" fill="url(#linear-gradient)"/>
</svg>
